<svg version="1.1" xmlns="http://www.w3.org/2000/svg" xmlns:xlink="http://www.w3.org/1999/xlink" preserveAspectRatio="xMidYMid meet" viewBox="0 0 600 400" width="600" height="400"><defs><path d="M575.49 6.09C583.92 6.09 590.76 12.93 590.76 21.36C590.76 95.63 590.76 303.2 590.76 377.48C590.76 385.91 583.92 392.74 575.49 392.74C462.27 392.74 137.86 392.74 24.64 392.74C16.21 392.74 9.38 385.91 9.38 377.48C9.38 303.2 9.38 95.63 9.38 21.36C9.38 12.93 16.21 6.09 24.64 6.09C137.86 6.09 462.27 6.09 575.49 6.09Z" id="j1B8hNQ3lE"></path><path d="M578.46 4.33C585.71 4.33 591.58 10.21 591.58 17.46C591.58 21.94 591.58 33.16 591.58 51.09C460.36 51.09 378.35 51.09 345.54 51.09C345.54 51.09 319.29 51.09 319.29 51.09C277.94 51.09 174.58 51.09 9.2 51.09C9.2 33.16 9.2 21.94 9.2 17.46C9.2 10.21 15.08 4.33 22.33 4.33C136.18 4.33 464.61 4.33 578.46 4.33Z" id="c3ij5KmKEG"></path><path d="M187.85 19.88C189.93 19.88 191.62 21.56 191.62 23.65C191.62 26.19 191.62 30.06 191.62 32.6C191.62 34.69 189.93 36.37 187.85 36.37C158.6 36.37 74.63 36.37 45.39 36.37C43.31 36.37 41.62 34.69 41.62 32.6C41.62 30.06 41.62 26.19 41.62 23.65C41.62 21.56 43.31 19.88 45.39 19.88C74.63 19.88 158.6 19.88 187.85 19.88Z" id="b12pbHBMVg"></path><path d="M524.83 34.1L524.83 30.97L549.21 30.97L549.21 34.1L524.83 34.1ZM524.83 29.08L524.83 25.95L549.21 25.95L549.21 29.08L524.83 29.08ZM524.83 23.97L524.83 20.83L549.21 20.83L549.21 23.97L524.83 23.97Z" id="bp9aEBCQf"></path><path d="M101.48 128.24C101.48 144.65 88.15 157.98 71.74 157.98C55.33 157.98 42 144.65 42 128.24C42 111.83 55.33 98.5 71.74 98.5C88.15 98.5 101.48 111.83 101.48 128.24Z" id="b2Fr2BZGcT"></path><linearGradient id="gradienta74efrUUv" gradientUnits="userSpaceOnUse" x1="90.29" y1="104.68" x2="45.46" y2="151.79"><stop style="stop-color: #fcab80;stop-opacity: 1" offset="0%"></stop><stop style="stop-color: #fe72a9;stop-opacity: 1" offset="100%"></stop></linearGradient><path d="M101.48 209.36C101.48 225.77 88.15 239.1 71.74 239.1C55.33 239.1 42 225.77 42 209.36C42 192.94 55.33 179.62 71.74 179.62C88.15 179.62 101.48 192.94 101.48 209.36Z" id="b2CfbMDCww"></path><linearGradient id="gradienta1jpLHHcSJ" gradientUnits="userSpaceOnUse" x1="90.29" y1="185.8" x2="45.46" y2="232.91"><stop style="stop-color: #00b8fa;stop-opacity: 1" offset="0%"></stop><stop style="stop-color: #0188f9;stop-opacity: 1" offset="100%"></stop></linearGradient><path d="M101.48 288.93C101.48 305.34 88.15 318.67 71.74 318.67C55.33 318.67 42 305.34 42 288.93C42 272.52 55.33 259.19 71.74 259.19C88.15 259.19 101.48 272.52 101.48 288.93Z" id="a4UdqP8WwG"></path><linearGradient id="gradientb1oHYxzGEx" gradientUnits="userSpaceOnUse" x1="90.29" y1="265.38" x2="45.46" y2="312.49"><stop style="stop-color: #ed52ca;stop-opacity: 1" offset="0%"></stop><stop style="stop-color: #b951eb;stop-opacity: 1" offset="100%"></stop></linearGradient><path d="M126.25 149.83L126.25 145.62L348.06 145.62L348.06 149.83L126.25 149.83ZM126.25 140.48L126.25 136.26L361.11 136.26L361.11 140.48L126.25 140.48ZM126.25 132.67L126.25 128.45L374.16 128.45L374.16 132.67L126.25 132.67ZM126.25 118.46L126.25 105.17L230.63 105.17L230.63 118.46L126.25 118.46Z" id="c2CY7tj9YV"></path><path d="M126.25 226.87L348.06 226.87L348.06 231.09L126.25 231.09L126.25 231.09L126.25 226.87ZM126.25 217.51L361.11 217.51L361.11 221.73L126.25 221.73L126.25 221.73L126.25 217.51ZM126.25 209.7L374.16 209.7L374.16 213.92L126.25 213.92L126.25 213.92L126.25 209.7ZM126.25 186.42L230.63 186.42L230.63 199.72L126.25 199.72L126.25 199.72L126.25 186.42Z" id="cbO4V0RpU"></path><path d="M126.25 309.09L348.06 309.09L348.06 313.31L126.25 313.31L126.25 313.31L126.25 309.09ZM126.25 299.73L361.11 299.73L361.11 303.95L126.25 303.95L126.25 303.95L126.25 299.73ZM126.25 291.92L374.16 291.92L374.16 296.14L126.25 296.14L126.25 296.14L126.25 291.92ZM126.25 268.64L230.63 268.64L230.63 281.93L126.25 281.93L126.25 281.93L126.25 268.64Z" id="c1iphOQg5n"></path><path d="M464.21 102.19L465.45 102.56L466.64 103.06L467.75 103.69L468.78 104.43L469.73 105.27L470.57 106.22L471.31 107.25L471.94 108.36L472.44 109.55L472.81 110.79L473.04 112.1L473.11 113.44L473.04 114.79L472.81 116.09L472.44 117.34L471.94 118.52L471.31 119.64L470.57 120.67L469.73 121.61L468.78 122.46L467.75 123.2L466.64 123.82L465.45 124.33L464.21 124.69L462.9 124.92L461.56 125L460.21 124.92L458.91 124.69L457.66 124.33L456.48 123.82L455.36 123.2L454.33 122.46L453.39 121.61L452.54 120.67L451.8 119.64L451.18 118.52L450.67 117.34L450.31 116.09L450.08 114.79L450 113.44L450.08 112.1L450.31 110.79L450.67 109.55L451.18 108.36L451.8 107.25L452.54 106.22L453.39 105.27L454.33 104.43L455.36 103.69L456.48 103.06L457.66 102.56L458.91 102.19L460.21 101.96L461.56 101.89L462.9 101.96L464.21 102.19ZM492.33 102.19L493.58 102.56L494.76 103.06L495.88 103.69L496.91 104.43L497.85 105.27L498.7 106.22L499.44 107.25L500.06 108.36L500.56 109.55L500.93 110.79L501.16 112.1L501.24 113.44L501.16 114.79L500.93 116.09L500.56 117.34L500.06 118.52L499.44 119.64L498.7 120.67L497.85 121.61L496.91 122.46L495.88 123.2L494.76 123.82L493.58 124.33L492.33 124.69L491.03 124.92L489.68 125L488.33 124.92L487.03 124.69L485.79 124.33L484.6 123.82L483.49 123.2L482.46 122.46L481.51 121.61L480.67 120.67L479.93 119.64L479.3 118.52L478.8 117.34L478.43 116.09L478.2 114.79L478.13 113.44L478.2 112.1L478.43 110.79L478.8 109.55L479.3 108.36L479.93 107.25L480.67 106.22L481.51 105.27L482.46 104.43L483.49 103.69L484.6 103.06L485.79 102.56L487.03 102.19L488.33 101.96L489.68 101.89L491.03 101.96L492.33 102.19ZM520.46 102.19L521.7 102.56L522.89 103.06L524 103.69L525.03 104.43L525.98 105.27L526.82 106.22L527.56 107.25L528.19 108.36L528.69 109.55L529.06 110.79L529.29 112.1L529.36 113.44L529.29 114.79L529.06 116.09L528.69 117.34L528.19 118.52L527.56 119.64L526.82 120.67L525.98 121.61L525.03 122.46L524 123.2L522.89 123.82L521.7 124.33L520.46 124.69L519.15 124.92L517.81 125L516.46 124.92L515.16 124.69L513.91 124.33L512.73 123.82L511.61 123.2L510.58 122.46L509.64 121.61L508.79 120.67L508.05 119.64L507.43 118.52L506.92 117.34L506.56 116.09L506.33 114.79L506.25 113.44L506.33 112.1L506.56 110.79L506.92 109.55L507.43 108.36L508.05 107.25L508.79 106.22L509.64 105.27L510.58 104.43L511.61 103.69L512.73 103.06L513.91 102.56L515.16 102.19L516.46 101.96L517.81 101.89L519.15 101.96L520.46 102.19ZM436.08 102.19L437.33 102.56L438.51 103.06L439.63 103.69L440.66 104.43L441.6 105.27L442.45 106.22L443.19 107.25L443.81 108.36L444.31 109.55L444.68 110.79L444.91 112.1L444.99 113.44L444.91 114.79L444.68 116.09L444.31 117.34L443.81 118.52L443.19 119.64L442.45 120.67L441.6 121.61L440.66 122.46L439.63 123.2L438.51 123.82L437.33 124.33L436.08 124.69L434.78 124.92L433.43 125L432.08 124.92L430.78 124.69L429.54 124.33L428.35 123.82L427.24 123.2L426.21 122.46L425.26 121.61L424.42 120.67L423.68 119.64L423.05 118.52L422.55 117.34L422.18 116.09L421.95 114.79L421.88 113.44L421.95 112.1L422.18 110.79L422.55 109.55L423.05 108.36L423.68 107.25L424.42 106.22L425.26 105.27L426.21 104.43L427.24 103.69L428.35 103.06L429.54 102.56L430.78 102.19L432.08 101.96L433.43 101.89L434.78 101.96L436.08 102.19ZM548.58 102.19L549.83 102.56L551.01 103.06L552.13 103.69L553.16 104.43L554.1 105.27L554.95 106.22L555.69 107.25L556.31 108.36L556.81 109.55L557.18 110.79L557.41 112.1L557.49 113.44L557.41 114.79L557.18 116.09L556.81 117.34L556.31 118.52L555.69 119.64L554.95 120.67L554.1 121.61L553.16 122.46L552.13 123.2L551.01 123.82L549.83 124.33L548.58 124.69L547.28 124.92L545.93 125L544.58 124.92L543.28 124.69L542.04 124.33L540.85 123.82L539.74 123.2L538.71 122.46L537.76 121.61L536.92 120.67L536.18 119.64L535.55 118.52L535.05 117.34L534.68 116.09L534.45 114.79L534.38 113.44L534.45 112.1L534.68 110.79L535.05 109.55L535.55 108.36L536.18 107.25L536.92 106.22L537.76 105.27L538.71 104.43L539.74 103.69L540.85 103.06L542.04 102.56L543.28 102.19L544.58 101.96L545.93 101.89L547.28 101.96L548.58 102.19Z" id="e1SOElcGco"></path><path d="M464.21 201.25L465.45 201.62L466.64 202.12L467.75 202.74L468.78 203.48L469.73 204.33L470.57 205.27L471.31 206.31L471.94 207.42L472.44 208.6L472.81 209.85L473.04 211.15L473.11 212.5L473.04 213.85L472.81 215.15L472.44 216.4L471.94 217.58L471.31 218.69L470.57 219.73L469.73 220.67L468.78 221.52L467.75 222.26L466.64 222.88L465.45 223.38L464.21 223.75L462.9 223.98L461.56 224.06L460.21 223.98L458.91 223.75L457.66 223.38L456.48 222.88L455.36 222.26L454.33 221.52L453.39 220.67L452.54 219.73L451.8 218.69L451.18 217.58L450.67 216.4L450.31 215.15L450.08 213.85L450 212.5L450.08 211.15L450.31 209.85L450.67 208.6L451.18 207.42L451.8 206.31L452.54 205.27L453.39 204.33L454.33 203.48L455.36 202.74L456.48 202.12L457.66 201.62L458.91 201.25L460.21 201.02L461.56 200.94L462.9 201.02L464.21 201.25ZM520.46 201.25L521.7 201.62L522.89 202.12L524 202.74L525.03 203.48L525.98 204.33L526.82 205.27L527.56 206.31L528.19 207.42L528.69 208.6L529.06 209.85L529.29 211.15L529.36 212.5L529.29 213.85L529.06 215.15L528.69 216.4L528.19 217.58L527.56 218.69L526.82 219.73L525.98 220.67L525.03 221.52L524 222.26L522.89 222.88L521.7 223.38L520.46 223.75L519.15 223.98L517.81 224.06L516.46 223.98L515.16 223.75L513.91 223.38L512.73 222.88L511.61 222.26L510.58 221.52L509.64 220.67L508.79 219.73L508.05 218.69L507.43 217.58L506.92 216.4L506.56 215.15L506.33 213.85L506.25 212.5L506.33 211.15L506.56 209.85L506.92 208.6L507.43 207.42L508.05 206.31L508.79 205.27L509.64 204.33L510.58 203.48L511.61 202.74L512.73 202.12L513.91 201.62L515.16 201.25L516.46 201.02L517.81 200.94L519.15 201.02L520.46 201.25ZM436.08 201.25L437.33 201.62L438.51 202.12L439.63 202.74L440.66 203.48L441.6 204.33L442.45 205.27L443.19 206.31L443.81 207.42L444.31 208.6L444.68 209.85L444.91 211.15L444.99 212.5L444.91 213.85L444.68 215.15L444.31 216.4L443.81 217.58L443.19 218.69L442.45 219.73L441.6 220.67L440.66 221.52L439.63 222.26L438.51 222.88L437.33 223.38L436.08 223.75L434.78 223.98L433.43 224.06L432.08 223.98L430.78 223.75L429.54 223.38L428.35 222.88L427.24 222.26L426.21 221.52L425.26 220.67L424.42 219.73L423.68 218.69L423.05 217.58L422.55 216.4L422.18 215.15L421.95 213.85L421.88 212.5L421.95 211.15L422.18 209.85L422.55 208.6L423.05 207.42L423.68 206.31L424.42 205.27L425.26 204.33L426.21 203.48L427.24 202.74L428.35 202.12L429.54 201.62L430.78 201.25L432.08 201.02L433.43 200.94L434.78 201.02L436.08 201.25ZM548.58 201.25L549.83 201.62L551.01 202.12L552.13 202.74L553.16 203.48L554.1 204.33L554.95 205.27L555.69 206.31L556.31 207.42L556.81 208.6L557.18 209.85L557.41 211.15L557.49 212.5L557.41 213.85L557.18 215.15L556.81 216.4L556.31 217.58L555.69 218.69L554.95 219.73L554.1 220.67L553.16 221.52L552.13 222.26L551.01 222.88L549.83 223.38L548.58 223.75L547.28 223.98L545.93 224.06L544.58 223.98L543.28 223.75L542.04 223.38L540.85 222.88L539.74 222.26L538.71 221.52L537.76 220.67L536.92 219.73L536.18 218.69L535.55 217.58L535.05 216.4L534.68 215.15L534.45 213.85L534.38 212.5L534.45 211.15L534.68 209.85L535.05 208.6L535.55 207.42L536.18 206.31L536.92 205.27L537.76 204.33L538.71 203.48L539.74 202.74L540.85 202.12L542.04 201.62L543.28 201.25L544.58 201.02L545.93 200.94L547.28 201.02L548.58 201.25ZM492.33 201.25L493.58 201.62L494.76 202.12L495.88 202.74L496.91 203.48L497.85 204.33L498.7 205.27L499.44 206.31L500.06 207.42L500.56 208.6L500.93 209.85L501.16 211.15L501.24 212.5L501.16 213.85L500.93 215.15L500.56 216.4L500.06 217.58L499.44 218.69L498.7 219.73L497.85 220.67L496.91 221.52L495.88 222.26L494.76 222.88L493.58 223.38L492.33 223.75L491.03 223.98L489.68 224.06L488.33 223.98L487.03 223.75L485.79 223.38L484.6 222.88L483.49 222.26L482.46 221.52L481.51 220.67L480.67 219.73L479.93 218.69L479.3 217.58L478.8 216.4L478.43 215.15L478.2 213.85L478.13 212.5L478.2 211.15L478.43 209.85L478.8 208.6L479.3 207.42L479.93 206.31L480.67 205.27L481.51 204.33L482.46 203.48L483.49 202.74L484.6 202.12L485.79 201.62L487.03 201.25L488.33 201.02L489.68 200.94L491.03 201.02L492.33 201.25Z" id="c1V1KHNSya"></path><path d="M464.21 289.69L465.45 290.06L466.64 290.56L467.75 291.19L468.78 291.93L469.73 292.77L470.57 293.72L471.31 294.75L471.94 295.86L472.44 297.05L472.81 298.29L473.04 299.6L473.11 300.94L473.04 302.29L472.81 303.59L472.44 304.84L471.94 306.02L471.31 307.14L470.57 308.17L469.73 309.11L468.78 309.96L467.75 310.7L466.64 311.32L465.45 311.83L464.21 312.19L462.9 312.42L461.56 312.5L460.21 312.42L458.91 312.19L457.66 311.83L456.48 311.32L455.36 310.7L454.33 309.96L453.39 309.11L452.54 308.17L451.8 307.14L451.18 306.02L450.67 304.84L450.31 303.59L450.08 302.29L450 300.94L450.08 299.6L450.31 298.29L450.67 297.05L451.18 295.86L451.8 294.75L452.54 293.72L453.39 292.77L454.33 291.93L455.36 291.19L456.48 290.56L457.66 290.06L458.91 289.69L460.21 289.46L461.56 289.39L462.9 289.46L464.21 289.69ZM520.46 289.69L521.7 290.06L522.89 290.56L524 291.19L525.03 291.93L525.98 292.77L526.82 293.72L527.56 294.75L528.19 295.86L528.69 297.05L529.06 298.29L529.29 299.6L529.36 300.94L529.29 302.29L529.06 303.59L528.69 304.84L528.19 306.02L527.56 307.14L526.82 308.17L525.98 309.11L525.03 309.96L524 310.7L522.89 311.32L521.7 311.83L520.46 312.19L519.15 312.42L517.81 312.5L516.46 312.42L515.16 312.19L513.91 311.83L512.73 311.32L511.61 310.7L510.58 309.96L509.64 309.11L508.79 308.17L508.05 307.14L507.43 306.02L506.92 304.84L506.56 303.59L506.33 302.29L506.25 300.94L506.33 299.6L506.56 298.29L506.92 297.05L507.43 295.86L508.05 294.75L508.79 293.72L509.64 292.77L510.58 291.93L511.61 291.19L512.73 290.56L513.91 290.06L515.16 289.69L516.46 289.46L517.81 289.39L519.15 289.46L520.46 289.69ZM436.08 289.69L437.33 290.06L438.51 290.56L439.63 291.19L440.66 291.93L441.6 292.77L442.45 293.72L443.19 294.75L443.81 295.86L444.31 297.05L444.68 298.29L444.91 299.6L444.99 300.94L444.91 302.29L444.68 303.59L444.31 304.84L443.81 306.02L443.19 307.14L442.45 308.17L441.6 309.11L440.66 309.96L439.63 310.7L438.51 311.32L437.33 311.83L436.08 312.19L434.78 312.42L433.43 312.5L432.08 312.42L430.78 312.19L429.54 311.83L428.35 311.32L427.24 310.7L426.21 309.96L425.26 309.11L424.42 308.17L423.68 307.14L423.05 306.02L422.55 304.84L422.18 303.59L421.95 302.29L421.88 300.94L421.95 299.6L422.18 298.29L422.55 297.05L423.05 295.86L423.68 294.75L424.42 293.72L425.26 292.77L426.21 291.93L427.24 291.19L428.35 290.56L429.54 290.06L430.78 289.69L432.08 289.46L433.43 289.39L434.78 289.46L436.08 289.69ZM548.58 289.69L549.83 290.06L551.01 290.56L552.13 291.19L553.16 291.93L554.1 292.77L554.95 293.72L555.69 294.75L556.31 295.86L556.81 297.05L557.18 298.29L557.41 299.6L557.49 300.94L557.41 302.29L557.18 303.59L556.81 304.84L556.31 306.02L555.69 307.14L554.95 308.17L554.1 309.11L553.16 309.96L552.13 310.7L551.01 311.32L549.83 311.83L548.58 312.19L547.28 312.42L545.93 312.5L544.58 312.42L543.28 312.19L542.04 311.83L540.85 311.32L539.74 310.7L538.71 309.96L537.76 309.11L536.92 308.17L536.18 307.14L535.55 306.02L535.05 304.84L534.68 303.59L534.45 302.29L534.38 300.94L534.45 299.6L534.68 298.29L535.05 297.05L535.55 295.86L536.18 294.75L536.92 293.72L537.76 292.77L538.71 291.93L539.74 291.19L540.85 290.56L542.04 290.06L543.28 289.69L544.58 289.46L545.93 289.39L547.28 289.46L548.58 289.69ZM492.33 289.69L493.58 290.06L494.76 290.56L495.88 291.19L496.91 291.93L497.85 292.77L498.7 293.72L499.44 294.75L500.06 295.86L500.56 297.05L500.93 298.29L501.16 299.6L501.24 300.94L501.16 302.29L500.93 303.59L500.56 304.84L500.06 306.02L499.44 307.14L498.7 308.17L497.85 309.11L496.91 309.96L495.88 310.7L494.76 311.32L493.58 311.83L492.33 312.19L491.03 312.42L489.68 312.5L488.33 312.42L487.03 312.19L485.79 311.83L484.6 311.32L483.49 310.7L482.46 309.96L481.51 309.11L480.67 308.17L479.93 307.14L479.3 306.02L478.8 304.84L478.43 303.59L478.2 302.29L478.13 300.94L478.2 299.6L478.43 298.29L478.8 297.05L479.3 295.86L479.93 294.75L480.67 293.72L481.51 292.77L482.46 291.93L483.49 291.19L484.6 290.56L485.79 290.06L487.03 289.69L488.33 289.46L489.68 289.39L491.03 289.46L492.33 289.69Z" id="bir0w7bc0"></path></defs><g><g><use xlink:href="#j1B8hNQ3lE" opacity="1" fill="#ffffff" fill-opacity="1"></use><g><filter id="shadow2794726" x="3.38" y="0.09" width="594.38" height="399.65" filterUnits="userSpaceOnUse" primitiveUnits="userSpaceOnUse"><feFlood></feFlood><feComposite in2="SourceAlpha" operator="out"></feComposite><feGaussianBlur stdDeviation="0"></feGaussianBlur><feOffset dx="-1" dy="-1" result="afterOffset"></feOffset><feFlood flood-color="#3c3838" flood-opacity="0.38"></feFlood><feComposite in2="afterOffset" operator="in"></feComposite><feMorphology operator="dilate" radius="0"></feMorphology><feComposite in2="SourceAlpha" operator="in"></feComposite></filter><path d="M575.49 6.09C583.92 6.09 590.76 12.93 590.76 21.36C590.76 95.63 590.76 303.2 590.76 377.48C590.76 385.91 583.92 392.74 575.49 392.74C462.27 392.74 137.86 392.74 24.64 392.74C16.21 392.74 9.38 385.91 9.38 377.48C9.38 303.2 9.38 95.63 9.38 21.36C9.38 12.93 16.21 6.09 24.64 6.09C137.86 6.09 462.27 6.09 575.49 6.09Z" id="etSe8eMXi" fill="white" fill-opacity="1" filter="url(#shadow2794726)"></path></g><g><filter id="shadow10555756" x="3.38" y="0.09" width="594.38" height="399.65" filterUnits="userSpaceOnUse" primitiveUnits="userSpaceOnUse"><feFlood></feFlood><feComposite in2="SourceAlpha" operator="out"></feComposite><feGaussianBlur stdDeviation="0"></feGaussianBlur><feOffset dx="1" dy="1" result="afterOffset"></feOffset><feFlood flood-color="#3c3838" flood-opacity="0.38"></feFlood><feComposite in2="afterOffset" operator="in"></feComposite><feMorphology operator="dilate" radius="0"></feMorphology><feComposite in2="SourceAlpha" operator="in"></feComposite></filter><path d="M575.49 6.09C583.92 6.09 590.76 12.93 590.76 21.36C590.76 95.63 590.76 303.2 590.76 377.48C590.76 385.91 583.92 392.74 575.49 392.74C462.27 392.74 137.86 392.74 24.64 392.74C16.21 392.74 9.38 385.91 9.38 377.48C9.38 303.2 9.38 95.63 9.38 21.36C9.38 12.93 16.21 6.09 24.64 6.09C137.86 6.09 462.27 6.09 575.49 6.09Z" id="b1duXeunD9" fill="white" fill-opacity="1" filter="url(#shadow10555756)"></path></g></g><g><use xlink:href="#c3ij5KmKEG" opacity="1" fill="#0a1227" fill-opacity="1"></use><g><filter id="shadow12904474" x="3.2" y="-1.67" width="595.38" height="59.76" filterUnits="userSpaceOnUse" primitiveUnits="userSpaceOnUse"><feFlood></feFlood><feComposite in2="SourceAlpha" operator="out"></feComposite><feGaussianBlur stdDeviation="0"></feGaussianBlur><feOffset dx="-1" dy="-1" result="afterOffset"></feOffset><feFlood flood-color="#3c3838" flood-opacity="0.38"></feFlood><feComposite in2="afterOffset" operator="in"></feComposite><feMorphology operator="dilate" radius="0"></feMorphology><feComposite in2="SourceAlpha" operator="in"></feComposite></filter><path d="M578.46 4.33C585.71 4.33 591.58 10.21 591.58 17.46C591.58 21.94 591.58 33.16 591.58 51.09C460.36 51.09 378.35 51.09 345.54 51.09C345.54 51.09 319.29 51.09 319.29 51.09C277.94 51.09 174.58 51.09 9.2 51.09C9.2 33.16 9.2 21.94 9.2 17.46C9.2 10.21 15.08 4.33 22.33 4.33C136.18 4.33 464.61 4.33 578.46 4.33Z" id="b3BmQdkVa1" fill="white" fill-opacity="1" filter="url(#shadow12904474)"></path></g><g><filter id="shadow11090873" x="3.2" y="-1.67" width="595.38" height="59.76" filterUnits="userSpaceOnUse" primitiveUnits="userSpaceOnUse"><feFlood></feFlood><feComposite in2="SourceAlpha" operator="out"></feComposite><feGaussianBlur stdDeviation="0"></feGaussianBlur><feOffset dx="1" dy="1" result="afterOffset"></feOffset><feFlood flood-color="#3c3838" flood-opacity="0.38"></feFlood><feComposite in2="afterOffset" operator="in"></feComposite><feMorphology operator="dilate" radius="0"></feMorphology><feComposite in2="SourceAlpha" operator="in"></feComposite></filter><path d="M578.46 4.33C585.71 4.33 591.58 10.21 591.58 17.46C591.58 21.94 591.58 33.16 591.58 51.09C460.36 51.09 378.35 51.09 345.54 51.09C345.54 51.09 319.29 51.09 319.29 51.09C277.94 51.09 174.58 51.09 9.2 51.09C9.2 33.16 9.2 21.94 9.2 17.46C9.2 10.21 15.08 4.33 22.33 4.33C136.18 4.33 464.61 4.33 578.46 4.33Z" id="aixKUW8na" fill="white" fill-opacity="1" filter="url(#shadow11090873)"></path></g></g><g><use xlink:href="#b12pbHBMVg" opacity="1" fill="#ffffff" fill-opacity="1"></use></g><g><use xlink:href="#bp9aEBCQf" opacity="1" fill="#ffffff" fill-opacity="1"></use></g><g><use xlink:href="#b2Fr2BZGcT" opacity="1" fill="url(#gradienta74efrUUv)"></use></g><g><use xlink:href="#b2CfbMDCww" opacity="1" fill="url(#gradienta1jpLHHcSJ)"></use></g><g><use xlink:href="#a4UdqP8WwG" opacity="1" fill="url(#gradientb1oHYxzGEx)"></use></g><g><use xlink:href="#c2CY7tj9YV" opacity="1" fill="#c2bcbc" fill-opacity="1"></use></g><g><use xlink:href="#cbO4V0RpU" opacity="1" fill="#c2bcbc" fill-opacity="1"></use></g><g><use xlink:href="#c1iphOQg5n" opacity="1" fill="#c2bcbc" fill-opacity="1"></use></g><g><use xlink:href="#e1SOElcGco" opacity="1" fill="#818181" fill-opacity="1"></use></g><g><use xlink:href="#c1V1KHNSya" opacity="1" fill="#818181" fill-opacity="1"></use></g><g><use xlink:href="#bir0w7bc0" opacity="1" fill="#818181" fill-opacity="1"></use></g></g></svg>