<svg version="1.1" xmlns="http://www.w3.org/2000/svg" xmlns:xlink="http://www.w3.org/1999/xlink" preserveAspectRatio="xMidYMid meet" viewBox="0 0 300 600" width="300" height="600"><defs><path d="M271.59 5.09C281.07 5.09 288.76 12.77 288.76 22.25C288.76 120.95 288.76 399.88 288.76 498.58C288.76 508.06 281.07 515.74 271.59 515.74C219.15 515.74 78.98 515.74 26.54 515.74C17.06 515.74 9.38 508.06 9.38 498.58C9.38 399.88 9.38 120.95 9.38 22.25C9.38 12.77 17.06 5.09 26.54 5.09C78.98 5.09 219.15 5.09 271.59 5.09Z" id="btwrYXV7y"></path><path d="M276.46 4.33C283.71 4.33 289.58 10.21 289.58 17.46C289.58 21.94 289.58 33.16 289.58 51.09C230.04 51.09 192.82 51.09 177.94 51.09C177.94 51.09 151.68 51.09 151.68 51.09C132.68 51.09 85.19 51.09 9.2 51.09C9.2 33.16 9.2 21.94 9.2 17.46C9.2 10.21 15.08 4.33 22.33 4.33C75.78 4.33 223.01 4.33 276.46 4.33Z" id="a1u0cJs5QC"></path><path d="M119.57 19.88C121.65 19.88 123.33 21.56 123.33 23.65C123.33 26.19 123.33 30.06 123.33 32.6C123.33 34.69 121.65 36.37 119.57 36.37C101.98 36.37 52.98 36.37 35.39 36.37C33.31 36.37 31.62 34.69 31.62 32.6C31.62 30.06 31.62 26.19 31.62 23.65C31.62 21.56 33.31 19.88 35.39 19.88C52.98 19.88 101.98 19.88 119.57 19.88Z" id="a14bdnq3ow"></path><path d="M237.83 35.1L237.83 31.97L262.21 31.97L262.21 35.1L237.83 35.1ZM237.83 30.08L237.83 26.95L262.21 26.95L262.21 30.08L237.83 30.08ZM237.83 24.97L237.83 21.83L262.21 21.83L262.21 24.97L237.83 24.97Z" id="aFwQi5wZp"></path><path d="M77.48 121.74C77.48 132.36 68.86 140.98 58.24 140.98C47.62 140.98 39 132.36 39 121.74C39 111.12 47.62 102.5 58.24 102.5C68.86 102.5 77.48 111.12 77.48 121.74Z" id="a20ppj8azY"></path><linearGradient id="gradienta2rfHh2nGE" gradientUnits="userSpaceOnUse" x1="70.24" y1="106.5" x2="41.24" y2="136.98"><stop style="stop-color: #fcab80;stop-opacity: 1" offset="0%"></stop><stop style="stop-color: #fe72a9;stop-opacity: 1" offset="100%"></stop></linearGradient><path d="M77.48 174.21C77.48 184.83 68.86 193.45 58.24 193.45C47.62 193.45 39 184.83 39 174.21C39 163.6 47.62 154.98 58.24 154.98C68.86 154.98 77.48 163.6 77.48 174.21Z" id="benIKMf4A"></path><linearGradient id="gradientb860GyeGjP" gradientUnits="userSpaceOnUse" x1="70.24" y1="158.98" x2="41.24" y2="189.45"><stop style="stop-color: #00b8fa;stop-opacity: 1" offset="0%"></stop><stop style="stop-color: #0188f9;stop-opacity: 1" offset="100%"></stop></linearGradient><path d="M77.48 225.69C77.48 236.31 68.86 244.93 58.24 244.93C47.62 244.93 39 236.31 39 225.69C39 215.07 47.62 206.45 58.24 206.45C68.86 206.45 77.48 215.07 77.48 225.69Z" id="aIz0UecJL"></path><linearGradient id="gradientb58Dl1zBd" gradientUnits="userSpaceOnUse" x1="70.24" y1="210.45" x2="41.24" y2="240.93"><stop style="stop-color: #ed52ca;stop-opacity: 1" offset="0%"></stop><stop style="stop-color: #b951eb;stop-opacity: 1" offset="100%"></stop></linearGradient><path d="M93.5 135.71L93.5 132.98L236.99 132.98L236.99 135.71L93.5 135.71ZM93.5 129.66L93.5 126.93L245.43 126.93L245.43 129.66L93.5 129.66ZM93.5 124.6L93.5 121.87L253.88 121.87L253.88 124.6L93.5 124.6ZM93.5 115.41L93.5 106.81L161.03 106.81L161.03 115.41L93.5 115.41Z" id="b2dbHR7O1i"></path><path d="M93.5 185.54L236.99 185.54L236.99 188.27L93.5 188.27L93.5 188.27L93.5 185.54ZM93.5 179.49L245.43 179.49L245.43 182.22L93.5 182.22L93.5 182.22L93.5 179.49ZM93.5 174.44L253.88 174.44L253.88 177.17L93.5 177.17L93.5 177.17L93.5 174.44ZM93.5 159.38L161.03 159.38L161.03 167.98L93.5 167.98L93.5 167.98L93.5 159.38Z" id="cQlxKye6e"></path><path d="M93.5 238.73L236.99 238.73L236.99 241.46L93.5 241.46L93.5 241.46L93.5 238.73ZM93.5 232.68L245.43 232.68L245.43 235.41L93.5 235.41L93.5 235.41L93.5 232.68ZM93.5 227.63L253.88 227.63L253.88 230.35L93.5 230.35L93.5 230.35L93.5 227.63ZM93.5 212.56L161.03 212.56L161.03 221.16L93.5 221.16L93.5 221.16L93.5 212.56Z" id="daLuLN0EN"></path><path d="M77.23 280.49C77.23 291.11 68.61 299.73 57.99 299.73C47.37 299.73 38.75 291.11 38.75 280.49C38.75 269.87 47.37 261.25 57.99 261.25C68.61 261.25 77.23 269.87 77.23 280.49Z" id="bFMMAaItC"></path><linearGradient id="gradientg3qMQOEXH9" gradientUnits="userSpaceOnUse" x1="69.99" y1="265.25" x2="40.99" y2="295.73"><stop style="stop-color: #fcab80;stop-opacity: 1" offset="0%"></stop><stop style="stop-color: #fe72a9;stop-opacity: 1" offset="100%"></stop></linearGradient><path d="M77.23 332.96C77.23 343.58 68.61 352.2 57.99 352.2C47.37 352.2 38.75 343.58 38.75 332.96C38.75 322.35 47.37 313.73 57.99 313.73C68.61 313.73 77.23 322.35 77.23 332.96Z" id="c1AwYplCQh"></path><linearGradient id="gradientc1ml25RZNe" gradientUnits="userSpaceOnUse" x1="69.99" y1="317.73" x2="40.99" y2="348.2"><stop style="stop-color: #00b8fa;stop-opacity: 1" offset="0%"></stop><stop style="stop-color: #0188f9;stop-opacity: 1" offset="100%"></stop></linearGradient><path d="M77.23 384.44C77.23 395.06 68.61 403.68 57.99 403.68C47.37 403.68 38.75 395.06 38.75 384.44C38.75 373.82 47.37 365.2 57.99 365.2C68.61 365.2 77.23 373.82 77.23 384.44Z" id="bgRhuXUZV"></path><linearGradient id="gradientb5BK5emRs" gradientUnits="userSpaceOnUse" x1="69.99" y1="369.2" x2="40.99" y2="399.68"><stop style="stop-color: #ed52ca;stop-opacity: 1" offset="0%"></stop><stop style="stop-color: #b951eb;stop-opacity: 1" offset="100%"></stop></linearGradient><path d="M93.28 291.73L236.77 291.73L236.77 294.46L93.28 294.46L93.28 294.46L93.28 291.73ZM93.28 285.68L245.21 285.68L245.21 288.41L93.28 288.41L93.28 288.41L93.28 285.68ZM93.28 280.63L253.65 280.63L253.65 283.35L93.28 283.35L93.28 283.35L93.28 280.63ZM93.28 265.56L160.8 265.56L160.8 274.16L93.28 274.16L93.28 274.16L93.28 265.56Z" id="h9zs90p7y"></path><path d="M93.28 344.29L236.77 344.29L236.77 347.02L93.28 347.02L93.28 347.02L93.28 344.29ZM93.28 338.24L245.21 338.24L245.21 340.97L93.28 340.97L93.28 340.97L93.28 338.24ZM93.28 333.19L253.65 333.19L253.65 335.92L93.28 335.92L93.28 335.92L93.28 333.19ZM93.28 318.13L160.8 318.13L160.8 326.73L93.28 326.73L93.28 326.73L93.28 318.13Z" id="fd8fNvI8y"></path><path d="M93.28 397.48L236.77 397.48L236.77 400.21L93.28 400.21L93.28 400.21L93.28 397.48ZM93.28 391.43L245.21 391.43L245.21 394.16L93.28 394.16L93.28 394.16L93.28 391.43ZM93.28 386.38L253.65 386.38L253.65 389.1L93.28 389.1L93.28 389.1L93.28 386.38ZM93.28 371.31L160.8 371.31L160.8 379.91L93.28 379.91L93.28 379.91L93.28 371.31Z" id="a1HZTkP4ZF"></path><path d="M74.98 436.24C74.98 446.86 66.36 455.48 55.74 455.48C45.12 455.48 36.5 446.86 36.5 436.24C36.5 425.62 45.12 417 55.74 417C66.36 417 74.98 425.62 74.98 436.24Z" id="a3DMgbu49"></path><linearGradient id="gradientfw6Arhniw" gradientUnits="userSpaceOnUse" x1="67.74" y1="421" x2="38.74" y2="451.48"><stop style="stop-color: #fcab80;stop-opacity: 1" offset="0%"></stop><stop style="stop-color: #fe72a9;stop-opacity: 1" offset="100%"></stop></linearGradient><path d="M74.98 488.71C74.98 499.33 66.36 507.95 55.74 507.95C45.12 507.95 36.5 499.33 36.5 488.71C36.5 478.1 45.12 469.48 55.74 469.48C66.36 469.48 74.98 478.1 74.98 488.71Z" id="auFz8ZppZ"></path><linearGradient id="gradientka9pxbi51" gradientUnits="userSpaceOnUse" x1="67.74" y1="473.48" x2="38.74" y2="503.95"><stop style="stop-color: #00b8fa;stop-opacity: 1" offset="0%"></stop><stop style="stop-color: #0188f9;stop-opacity: 1" offset="100%"></stop></linearGradient><path d="M91.25 447.48L234.74 447.48L234.74 450.21L91.25 450.21L91.25 450.21L91.25 447.48ZM91.25 441.43L243.18 441.43L243.18 444.16L91.25 444.16L91.25 444.16L91.25 441.43ZM91.25 436.38L251.62 436.38L251.62 439.1L91.25 439.1L91.25 439.1L91.25 436.38ZM91.25 421.31L158.78 421.31L158.78 429.91L91.25 429.91L91.25 429.91L91.25 421.31Z" id="f3km2FlG0F"></path><path d="M91.25 500.04L234.74 500.04L234.74 502.77L91.25 502.77L91.25 502.77L91.25 500.04ZM91.25 493.99L243.18 493.99L243.18 496.72L91.25 496.72L91.25 496.72L91.25 493.99ZM91.25 488.94L251.62 488.94L251.62 491.67L91.25 491.67L91.25 491.67L91.25 488.94ZM91.25 473.88L158.78 473.88L158.78 482.48L91.25 482.48L91.25 482.48L91.25 473.88Z" id="cwgUBgdRj"></path></defs><g><g><use xlink:href="#btwrYXV7y" opacity="1" fill="#ffffff" fill-opacity="1"></use><g><filter id="shadow12002570" x="3.38" y="-0.91" width="292.38" height="523.65" filterUnits="userSpaceOnUse" primitiveUnits="userSpaceOnUse"><feFlood></feFlood><feComposite in2="SourceAlpha" operator="out"></feComposite><feGaussianBlur stdDeviation="0"></feGaussianBlur><feOffset dx="-1" dy="-1" result="afterOffset"></feOffset><feFlood flood-color="#3c3838" flood-opacity="0.38"></feFlood><feComposite in2="afterOffset" operator="in"></feComposite><feMorphology operator="dilate" radius="0"></feMorphology><feComposite in2="SourceAlpha" operator="in"></feComposite></filter><path d="M271.59 5.09C281.07 5.09 288.76 12.77 288.76 22.25C288.76 120.95 288.76 399.88 288.76 498.58C288.76 508.06 281.07 515.74 271.59 515.74C219.15 515.74 78.98 515.74 26.54 515.74C17.06 515.74 9.38 508.06 9.38 498.58C9.38 399.88 9.38 120.95 9.38 22.25C9.38 12.77 17.06 5.09 26.54 5.09C78.98 5.09 219.15 5.09 271.59 5.09Z" id="f3tXj2SmG1" fill="white" fill-opacity="1" filter="url(#shadow12002570)"></path></g><g><filter id="shadow2154308" x="3.38" y="-0.91" width="292.38" height="523.65" filterUnits="userSpaceOnUse" primitiveUnits="userSpaceOnUse"><feFlood></feFlood><feComposite in2="SourceAlpha" operator="out"></feComposite><feGaussianBlur stdDeviation="0"></feGaussianBlur><feOffset dx="1" dy="1" result="afterOffset"></feOffset><feFlood flood-color="#3c3838" flood-opacity="0.38"></feFlood><feComposite in2="afterOffset" operator="in"></feComposite><feMorphology operator="dilate" radius="0"></feMorphology><feComposite in2="SourceAlpha" operator="in"></feComposite></filter><path d="M271.59 5.09C281.07 5.09 288.76 12.77 288.76 22.25C288.76 120.95 288.76 399.88 288.76 498.58C288.76 508.06 281.07 515.74 271.59 515.74C219.15 515.74 78.98 515.74 26.54 515.74C17.06 515.74 9.38 508.06 9.38 498.58C9.38 399.88 9.38 120.95 9.38 22.25C9.38 12.77 17.06 5.09 26.54 5.09C78.98 5.09 219.15 5.09 271.59 5.09Z" id="e2CY9mIIw" fill="white" fill-opacity="1" filter="url(#shadow2154308)"></path></g></g><g><use xlink:href="#a1u0cJs5QC" opacity="1" fill="#0a1227" fill-opacity="1"></use><g><filter id="shadow2473783" x="3.2" y="-1.67" width="293.38" height="59.76" filterUnits="userSpaceOnUse" primitiveUnits="userSpaceOnUse"><feFlood></feFlood><feComposite in2="SourceAlpha" operator="out"></feComposite><feGaussianBlur stdDeviation="0"></feGaussianBlur><feOffset dx="-1" dy="-1" result="afterOffset"></feOffset><feFlood flood-color="#3c3838" flood-opacity="0.38"></feFlood><feComposite in2="afterOffset" operator="in"></feComposite><feMorphology operator="dilate" radius="0"></feMorphology><feComposite in2="SourceAlpha" operator="in"></feComposite></filter><path d="M276.46 4.33C283.71 4.33 289.58 10.21 289.58 17.46C289.58 21.94 289.58 33.16 289.58 51.09C230.04 51.09 192.82 51.09 177.94 51.09C177.94 51.09 151.68 51.09 151.68 51.09C132.68 51.09 85.19 51.09 9.2 51.09C9.2 33.16 9.2 21.94 9.2 17.46C9.2 10.21 15.08 4.33 22.33 4.33C75.78 4.33 223.01 4.33 276.46 4.33Z" id="a1cVpsJsdC" fill="white" fill-opacity="1" filter="url(#shadow2473783)"></path></g><g><filter id="shadow1039619" x="3.2" y="-1.67" width="293.38" height="59.76" filterUnits="userSpaceOnUse" primitiveUnits="userSpaceOnUse"><feFlood></feFlood><feComposite in2="SourceAlpha" operator="out"></feComposite><feGaussianBlur stdDeviation="0"></feGaussianBlur><feOffset dx="1" dy="1" result="afterOffset"></feOffset><feFlood flood-color="#3c3838" flood-opacity="0.38"></feFlood><feComposite in2="afterOffset" operator="in"></feComposite><feMorphology operator="dilate" radius="0"></feMorphology><feComposite in2="SourceAlpha" operator="in"></feComposite></filter><path d="M276.46 4.33C283.71 4.33 289.58 10.21 289.58 17.46C289.58 21.94 289.58 33.16 289.58 51.09C230.04 51.09 192.82 51.09 177.94 51.09C177.94 51.09 151.68 51.09 151.68 51.09C132.68 51.09 85.19 51.09 9.2 51.09C9.2 33.16 9.2 21.94 9.2 17.46C9.2 10.21 15.08 4.33 22.33 4.33C75.78 4.33 223.01 4.33 276.46 4.33Z" id="bc6lSdivt" fill="white" fill-opacity="1" filter="url(#shadow1039619)"></path></g></g><g><use xlink:href="#a14bdnq3ow" opacity="1" fill="#ffffff" fill-opacity="1"></use></g><g><use xlink:href="#aFwQi5wZp" opacity="1" fill="#ffffff" fill-opacity="1"></use></g><g><use xlink:href="#a20ppj8azY" opacity="1" fill="url(#gradienta2rfHh2nGE)"></use></g><g><use xlink:href="#benIKMf4A" opacity="1" fill="url(#gradientb860GyeGjP)"></use></g><g><use xlink:href="#aIz0UecJL" opacity="1" fill="url(#gradientb58Dl1zBd)"></use></g><g><use xlink:href="#b2dbHR7O1i" opacity="1" fill="#c2bcbc" fill-opacity="1"></use></g><g><use xlink:href="#cQlxKye6e" opacity="1" fill="#c2bcbc" fill-opacity="1"></use></g><g><use xlink:href="#daLuLN0EN" opacity="1" fill="#c2bcbc" fill-opacity="1"></use></g><g><use xlink:href="#bFMMAaItC" opacity="1" fill="url(#gradientg3qMQOEXH9)"></use></g><g><use xlink:href="#c1AwYplCQh" opacity="1" fill="url(#gradientc1ml25RZNe)"></use></g><g><use xlink:href="#bgRhuXUZV" opacity="1" fill="url(#gradientb5BK5emRs)"></use></g><g><use xlink:href="#h9zs90p7y" opacity="1" fill="#c2bcbc" fill-opacity="1"></use></g><g><use xlink:href="#fd8fNvI8y" opacity="1" fill="#c2bcbc" fill-opacity="1"></use></g><g><use xlink:href="#a1HZTkP4ZF" opacity="1" fill="#c2bcbc" fill-opacity="1"></use></g><g><use xlink:href="#a3DMgbu49" opacity="1" fill="url(#gradientfw6Arhniw)"></use></g><g><use xlink:href="#auFz8ZppZ" opacity="1" fill="url(#gradientka9pxbi51)"></use></g><g><use xlink:href="#f3km2FlG0F" opacity="1" fill="#c2bcbc" fill-opacity="1"></use></g><g><use xlink:href="#cwgUBgdRj" opacity="1" fill="#c2bcbc" fill-opacity="1"></use></g></g></svg>